<?xml version="1.0" encoding="iso-8859-1"?>
<!-- Uploaded to: SVG Repo, www.svgrepo.com, Generator: SVG Repo Mixer Tools -->
<svg fill="#828282" height="800px" width="800px" version="1.1" id="Capa_1" xmlns="http://www.w3.org/2000/svg" xmlns:xlink="http://www.w3.org/1999/xlink" 
	 viewBox="0 0 486.4 486.4" xml:space="preserve">
<g>
	<g id="XMLID_1769_">
		<g id="XMLID_832_">
			<path id="XMLID_834_" d="M272.9,456.6V343.1h-8v-27.8c77.2-10.6,136.7-76.8,136.7-156.9C401.6,70.9,330.7,0,243.2,0
				S84.8,70.9,84.8,158.4c0,80.1,59.5,146.3,136.7,156.9v27.8h-8v113.5c0,16.5,13.3,29.8,29.8,29.8
				C259.6,486.4,272.9,473,272.9,456.6z M243.1,273.3c-63.5,0-115.1-51.5-115.1-115.1c0-63.5,51.5-115.1,115.1-115.1
				c63.5,0,115.1,51.5,115.1,115.1S306.6,273.3,243.1,273.3z"/>
		</g>
		<g id="XMLID_1103_">
			<path id="XMLID_1104_" d="M185.2,177c-10.3,0-18.7-8.4-18.7-18.7c0-42.2,34.4-76.6,76.6-76.6c10.3,0,18.7,8.4,18.7,18.7
				s-8.4,18.7-18.7,18.7c-21.6,0-39.2,17.6-39.2,39.2C203.9,168.6,195.5,177,185.2,177z"/>
		</g>
	</g>
</g>
</svg>