<?xml version="1.0" encoding="utf-8"?>
<svg viewBox="188.702 98.88 128.41 134.798" xmlns="http://www.w3.org/2000/svg" xmlns:bx="https://boxy-svg.com">
  <path d="M 790.197 699.047 L 854.197 827.047 L 726.197 827.047 L 790.197 699.047 Z" style="fill: rgb(195, 195, 195);" transform="matrix(0, 1, -1, 0, 1015.749146, -620.518738)" bx:shape="triangle 726.197 699.047 128 128 0.5 0 1@a07e3454" bx:origin="0 1"/>
  <ellipse style="fill: rgb(255, 255, 255);" cx="305.741" cy="159.136" rx="26.167" ry="27.177" transform="matrix(0.766043, 0.642789, -0.642789, 0.766043, 129.14534, -181.913528)"/>
  <rect style="fill: rgb(255, 255, 255); stroke: rgb(255, 255, 255);" x="123.811" y="200.75" width="35.545" height="14.225" rx="4" ry="4" transform="matrix(-0.642734, 0.766089, -0.741774, -0.671716, 472.15625, 208.890793)"/>
  <path style="fill: rgb(255, 255, 255); stroke: rgb(255, 255, 255);" d="M 81.383 125.468 H 99.597 V 134.358 H 81.383 A 4 4 0 0 1 77.383 130.358 V 129.468 A 4 4 0 0 1 81.383 125.468 Z" transform="matrix(0.642734, -0.766089, 0.741774, 0.671716, 83.787811, 146.038589)" bx:shape="rect 77.383 125.468 22.214 8.89 4 0 0 4 1@74375fc8"/>
  <ellipse style="fill: rgb(171, 171, 171);" cx="305.741" cy="159.136" rx="22.254" ry="23.113" transform="matrix(0.766043, 0.642789, -0.642789, 0.766043, 128.72728, -181.759918)"/>
  <ellipse style="stroke-linejoin: round; fill: none; stroke: rgb(255, 255, 255); stroke-width: 3px;" cx="204.247" cy="161.39" rx="17.444" ry="18.116" transform="matrix(0.996195, -0.087156, 0.087156, 0.996195, 43.24218, -6.46945)"/>
  <ellipse style="fill: rgb(171, 171, 171);" cx="202.706" cy="163.082" rx="17.985" ry="18.358" transform="matrix(0.996195, -0.087156, 0.087156, 0.996195, 43.24218, -6.469422)"/>
</svg>