<?xml version="1.0" encoding="utf-8"?>
<svg viewBox="0 0 128 128" width="128px" height="128px" xmlns="http://www.w3.org/2000/svg">
  <path d="M 120.064 75.804 C 120.064 82.246 118.889 88.424 116.735 94.152 L 11.173 94.152 C 9.017 88.424 7.843 82.246 7.843 75.804 C 7.843 46.013 32.965 21.862 63.954 21.862 C 94.943 21.862 120.064 46.013 120.064 75.804 Z" style="fill: rgb(255, 204, 0); paint-order: fill; stroke: rgb(176, 154, 64);"/>
  <path d="M 63.954 100.586 C 60.374 100.586 56.879 100.262 53.504 99.646 L 46.053 28.9 C 45.126 20.11 45.589 15.715 47.441 15.715 L 80.465 15.715 C 82.317 15.715 82.78 20.11 81.855 28.9 L 74.403 99.646 C 71.027 100.262 67.532 100.586 63.954 100.586 Z" style="fill: rgb(159, 135, 41);"/>
  <path d="M 63.954 99.552 C 60.813 99.552 57.749 99.24 54.789 98.646 L 48.252 30.438 C 47.441 21.962 47.847 17.726 49.471 17.726 L 78.435 17.726 C 80.06 17.726 80.466 21.962 79.655 30.438 L 73.119 98.646 C 70.158 99.24 67.093 99.552 63.954 99.552 Z" style="fill: rgb(255, 204, 0);"/>
  <path d="M 103.065 100.498 L 104.722 87.536 C 104.83 86.684 104.317 85.994 103.576 85.994 L 90.197 85.994 C 90.187 85.994 90.176 85.994 90.166 85.994 L 24.33 85.994 C 23.589 85.994 23.076 86.684 23.184 87.536 L 24.841 100.498 C 24.95 101.351 25.639 102.041 26.381 102.041 L 35.658 102.041 C 35.669 102.042 35.679 102.042 35.69 102.042 L 101.525 102.042 C 102.267 102.042 102.957 101.351 103.065 100.498 Z" style="fill: rgb(247, 213, 77); stroke: rgb(176, 147, 30);"/>
  <path d="M 123.921 72.568 L 126.46 92.126 C 126.627 93.413 125.841 94.454 124.703 94.454 L 104.191 94.454 C 104.175 94.456 104.159 94.456 104.144 94.456 L 3.204 94.456 C 2.067 94.456 1.28 93.413 1.446 92.126 L 3.986 72.568 C 4.153 71.281 5.21 70.24 6.347 70.24 L 20.572 70.24 C 20.587 70.24 20.604 70.24 20.621 70.24 L 121.559 70.24 C 122.696 70.24 123.756 71.281 123.921 72.568 Z" style="fill: rgb(217, 188, 72); stroke: rgb(131, 110, 26);"/>
  <text style="fill: rgb(241, 241, 241); font-family: Arial, sans-serif; font-size: 10.5px; white-space: pre;" x="43.734" y="111.681"> </text>
</svg>