<?xml version="1.0" encoding="utf-8"?>
<svg viewBox="93.558 93.901 128 128.82" xmlns="http://www.w3.org/2000/svg">
  <path d="M 213.553 173.434 C 213.553 180.135 212.378 186.562 210.224 192.52 L 104.662 192.52 C 102.506 186.562 101.332 180.135 101.332 173.434 C 101.332 142.445 126.454 117.323 157.443 117.323 C 188.432 117.323 213.553 142.445 213.553 173.434 Z" style="fill: rgb(255, 204, 0); paint-order: fill; stroke: rgb(176, 154, 64);"/>
  <path d="M 157.443 198.954 C 153.863 198.954 150.368 198.63 146.993 198.014 L 139.542 127.268 C 138.615 118.478 139.078 114.083 140.93 114.083 L 173.954 114.083 C 175.806 114.083 176.269 118.478 175.344 127.268 L 167.892 198.014 C 164.516 198.63 161.021 198.954 157.443 198.954 Z" style="fill: rgb(159, 135, 41);"/>
  <path d="M 157.443 197.92 C 154.302 197.92 151.238 197.608 148.278 197.014 L 141.741 128.806 C 140.93 120.33 141.336 116.094 142.96 116.094 L 171.924 116.094 C 173.549 116.094 173.955 120.33 173.144 128.806 L 166.608 197.014 C 163.647 197.608 160.582 197.92 157.443 197.92 Z" style="fill: rgb(255, 204, 0);"/>
  <path d="M 196.554 198.866 L 198.211 185.904 C 198.319 185.052 197.806 184.362 197.065 184.362 L 183.686 184.362 C 183.676 184.362 183.665 184.362 183.655 184.362 L 117.819 184.362 C 117.078 184.362 116.565 185.052 116.673 185.904 L 118.33 198.866 C 118.439 199.719 119.128 200.409 119.87 200.409 L 129.147 200.409 C 129.158 200.41 129.168 200.41 129.179 200.41 L 195.014 200.41 C 195.756 200.41 196.446 199.719 196.554 198.866 Z" style="fill: rgb(247, 213, 77); stroke: rgb(176, 147, 30);"/>
  <path d="M 217.41 170.936 L 219.949 190.494 C 220.116 191.781 219.33 192.822 218.192 192.822 L 197.68 192.822 C 197.664 192.824 197.648 192.824 197.633 192.824 L 96.693 192.824 C 95.556 192.824 94.769 191.781 94.935 190.494 L 97.475 170.936 C 97.642 169.649 98.699 168.608 99.836 168.608 L 114.061 168.608 C 114.076 168.608 114.093 168.608 114.11 168.608 L 215.048 168.608 C 216.185 168.608 217.245 169.649 217.41 170.936 Z" style="fill: rgb(217, 188, 72); stroke: rgb(131, 110, 26);"/>
  <text style="fill: rgb(241, 241, 241); font-family: Arial, sans-serif; font-size: 10.5px; white-space: pre;" x="137.223" y="210.049"> </text>
</svg>