<?xml version="1.0" encoding="utf-8"?>
<svg viewBox="93.558 93.901 128 128.82" xmlns="http://www.w3.org/2000/svg" xmlns:bx="https://boxy-svg.com">
  <defs>
    <style bx:fonts="Roboto Condensed">@import url(https://fonts.googleapis.com/css2?family=Roboto+Condensed%3Aital%2Cwght%400%2C300%3B0%2C400%3B0%2C700%3B1%2C300%3B1%2C400%3B1%2C700&amp;display=swap);</style>
  </defs>
  <rect style="fill: rgb(255, 0, 0);" x="93.558" y="94.721" width="128" height="128" rx="8" ry="8"/>
  <path d="M 201.209 168.882 C 201.209 174.095 200.295 179.095 198.619 183.73 L 116.497 183.73 C 114.82 179.095 113.907 174.095 113.907 168.882 C 113.907 144.774 133.45 125.23 157.558 125.23 C 181.666 125.23 201.209 144.774 201.209 168.882 Z" style="fill: rgb(255, 204, 0);"/>
  <path d="M 157.558 188.735 C 154.773 188.735 152.054 188.483 149.429 188.004 L 143.632 132.967 C 142.911 126.129 143.271 122.71 144.712 122.71 L 170.403 122.71 C 171.844 122.71 172.204 126.129 171.484 132.967 L 165.687 188.004 C 163.061 188.483 160.342 188.735 157.558 188.735 Z" style="fill: rgb(217, 188, 72);"/>
  <path d="M 157.558 190.296 C 155.115 190.296 152.731 190.038 150.428 189.548 L 145.343 133.217 C 144.712 126.217 145.028 122.718 146.291 122.718 L 168.824 122.718 C 170.088 122.718 170.404 126.217 169.773 133.217 L 164.688 189.548 C 162.385 190.038 160 190.296 157.558 190.296 Z" style="fill: rgb(255, 204, 0);"/>
  <path d="M 187.985 190.117 L 189.274 178.737 C 189.358 177.989 188.959 177.383 188.382 177.383 L 177.974 177.383 C 177.966 177.383 177.958 177.383 177.95 177.383 L 126.733 177.383 C 126.156 177.383 125.757 177.989 125.841 178.737 L 127.13 190.117 C 127.215 190.865 127.751 191.471 128.328 191.471 L 135.545 191.471 C 135.554 191.472 135.562 191.472 135.57 191.472 L 186.787 191.472 C 187.364 191.472 187.901 190.865 187.985 190.117 Z" style="fill: rgb(255, 204, 0);"/>
  <path d="M 204.21 168.978 L 206.185 182.371 C 206.315 183.252 205.703 183.965 204.818 183.965 L 188.861 183.965 C 188.848 183.966 188.836 183.966 188.824 183.966 L 110.298 183.966 C 109.413 183.966 108.801 183.252 108.93 182.371 L 110.906 168.978 C 111.036 168.097 111.858 167.384 112.743 167.384 L 123.809 167.384 C 123.821 167.384 123.834 167.384 123.847 167.384 L 202.372 167.384 C 203.257 167.384 204.081 168.097 204.21 168.978 Z" style="fill: rgb(217, 188, 72);"/>
  <text style="fill: rgb(255, 255, 255); font-family: &quot;Roboto Condensed&quot;; font-size: 29.8px; font-weight: 700; white-space: pre;" x="98.147" y="122.389">Y T</text>
</svg>